<?xml version="1.0" encoding="iso-8859-1"?>
<!-- Generator: Adobe Illustrator 19.0.0, SVG Export Plug-In . SVG Version: 6.00 Build 0)  -->
<svg version="1.1" id="Capa_1" xmlns="http://www.w3.org/2000/svg" xmlns:xlink="http://www.w3.org/1999/xlink" x="0px" y="0px"
	 viewBox="0 0 511.984 511.984" style="enable-background:new 0 0 511.984 511.984;" xml:space="preserve">
<path style="fill:#656D78;" d="M20,483.985v15.999c0,4.422,3.578,8,7.999,8c4.422,0,8-3.578,8-8v-15.999H20z"/>
<rect x="4.002" y="4.002" style="fill:#965353;" width="335.99" height="479.99"/>
<g>
	<rect x="28.002" y="28.002" style="fill:#EC87C0;" width="16" height="71.998"/>
	<rect x="275.992" y="115.992" style="fill:#EC87C0;" width="16" height="79.998"/>
	<rect x="307.992" y="115.992" style="fill:#EC87C0;" width="15.999" height="79.998"/>
</g>
<g>
	<rect x="60.002" y="20.002" style="fill:#ED5565;" width="16" height="79.998"/>
	<rect x="203.992" y="339.992" style="fill:#ED5565;" width="15.999" height="47.998"/>
	<rect x="131.992" y="411.992" style="fill:#ED5565;" width="16" height="71.998"/>
</g>
<rect x="99.992" y="411.992" style="fill:#A0D468;" width="16" height="71.998"/>
<rect x="68.002" y="403.992" style="fill:#AC92EC;" width="16" height="79.997"/>
<rect x="76.002" y="211.992" style="fill:#ED5565;" width="15.999" height="79.998"/>
<g>
	<rect x="107.992" y="227.992" style="fill:#5D9CEC;" width="15.999" height="63.998"/>
	<rect x="91.992" y="20.002" style="fill:#5D9CEC;" width="31.999" height="79.998"/>
</g>
<rect x="155.992" y="315.992" style="fill:#A0D468;" width="31.999" height="71.998"/>
<rect x="163.992" y="411.992" style="fill:#5D9CEC;" width="47.999" height="71.998"/>
<rect x="139.992" y="36.002" style="fill:#AC92EC;" width="31.999" height="63.998"/>
<g>
	<rect x="107.992" y="323.992" style="fill:#FC6E51;" width="31.999" height="63.998"/>
	<rect x="20.002" y="419.992" style="fill:#FC6E51;" width="31.999" height="63.998"/>
	<rect x="28.002" y="227.992" style="fill:#FC6E51;" width="31.999" height="63.998"/>
</g>
<rect x="187.992" y="227.992" style="fill:#ED5565;" width="31.999" height="63.998"/>
<rect x="139.992" y="211.992" style="fill:#FFCE54;" width="31.999" height="79.998"/>
<rect x="131.992" y="123.992" style="fill:#AC92EC;" width="31.999" height="71.998"/>
<rect x="291.992" y="20.002" style="fill:#4FC1E9;" width="31.998" height="79.998"/>
<rect x="187.992" y="36.002" style="fill:#48CFAD;" width="87.998" height="31.999"/>
<rect x="187.992" y="68.002" style="fill:#ED5565;" width="87.998" height="31.999"/>
<rect x="235.992" y="323.992" style="fill:#4FC1E9;" width="87.997" height="31.999"/>
<rect x="235.992" y="355.992" style="fill:#5D9CEC;" width="87.997" height="31.999"/>
<rect x="179.992" y="147.992" style="fill:#A0D468;" width="79.997" height="47.999"/>
<rect x="28.002" y="131.992" style="fill:#ED5565;" width="87.998" height="16"/>
<rect x="28.002" y="147.992" style="fill:#48CFAD;" width="87.998" height="16"/>
<g>
	<rect x="28.002" y="163.992" style="fill:#ED5565;" width="87.998" height="16"/>
	<rect x="235.992" y="243.992" style="fill:#ED5565;" width="87.997" height="16"/>
</g>
<rect x="235.992" y="259.992" style="fill:#AC92EC;" width="87.997" height="16"/>
<rect x="235.992" y="275.992" style="fill:#ED5565;" width="87.997" height="15.999"/>
<rect x="28.002" y="179.992" style="fill:#5D9CEC;" width="87.998" height="16"/>
<rect x="227.992" y="419.992" style="fill:#ED5565;" width="96" height="15.999"/>
<rect x="227.992" y="435.982" style="fill:#48CFAD;" width="96" height="16"/>
<rect x="227.992" y="451.982" style="fill:#ED5565;" width="96" height="16"/>
<rect x="227.992" y="467.982" style="fill:#FFCE54;" width="96" height="15.999"/>
<rect x="20.002" y="323.992" style="fill:#ED5565;" width="71.997" height="16"/>
<rect x="20.002" y="307.992" style="fill:#48CFAD;" width="71.997" height="16"/>
<rect x="20.002" y="339.992" style="fill:#FFCE54;" width="71.997" height="15.999"/>
<rect x="20.002" y="355.992" style="fill:#4FC1E9;" width="71.997" height="15.999"/>
<rect x="20.002" y="371.992" style="fill:#A0D468;" width="71.997" height="16"/>
<g style="opacity:0.3;">
	<rect x="28.002" y="28.002" style="fill:#FFFFFF;" width="8" height="71.998"/>
</g>
<g style="opacity:0.3;">
	<rect x="60.002" y="20.002" style="fill:#FFFFFF;" width="8" height="79.998"/>
</g>
<g style="opacity:0.3;">
	<rect x="91.992" y="20.002" style="fill:#FFFFFF;" width="8" height="79.998"/>
</g>
<g style="opacity:0.3;">
	<rect x="139.992" y="36.002" style="fill:#FFFFFF;" width="8" height="63.998"/>
</g>
<g style="opacity:0.3;">
	<rect x="187.992" y="36.002" style="fill:#FFFFFF;" width="8" height="63.998"/>
</g>
<g style="opacity:0.3;">
	<rect x="291.992" y="20.002" style="fill:#FFFFFF;" width="7.999" height="79.998"/>
</g>
<g style="opacity:0.2;">
	<rect x="315.992" y="20.002" width="8" height="79.998"/>
</g>
<g style="opacity:0.2;">
	<rect x="267.992" y="36.002" width="8" height="63.998"/>
</g>
<g style="opacity:0.3;">
	<rect x="179.992" y="147.992" style="fill:#FFFFFF;" width="7.999" height="47.999"/>
</g>
<g style="opacity:0.3;">
	<rect x="235.992" y="243.992" style="fill:#FFFFFF;" width="8" height="47.999"/>
</g>
<g style="opacity:0.3;">
	<rect x="203.992" y="339.992" style="fill:#FFFFFF;" width="8" height="47.998"/>
</g>
<g style="opacity:0.3;">
	<rect x="235.992" y="323.992" style="fill:#FFFFFF;" width="8" height="63.998"/>
</g>
<g style="opacity:0.2;">
	<rect x="315.992" y="323.992" width="8" height="63.998"/>
</g>
<g style="opacity:0.2;">
	<rect x="315.992" y="243.992" width="8" height="47.999"/>
</g>
<g style="opacity:0.3;">
	<rect x="187.992" y="227.992" style="fill:#FFFFFF;" width="8" height="63.998"/>
</g>
<g style="opacity:0.2;">
	<rect x="211.992" y="227.992" width="7.999" height="63.998"/>
</g>
<g style="opacity:0.3;">
	<rect x="275.992" y="115.992" style="fill:#FFFFFF;" width="8" height="79.998"/>
</g>
<g style="opacity:0.3;">
	<rect x="307.992" y="115.992" style="fill:#FFFFFF;" width="7.999" height="79.998"/>
</g>
<g style="opacity:0.2;">
	<rect x="251.992" y="147.992" width="8" height="47.999"/>
</g>
<g style="opacity:0.2;">
	<rect x="163.992" y="36.002" width="8" height="63.998"/>
</g>
<g style="opacity:0.3;">
	<rect x="131.992" y="123.992" style="fill:#FFFFFF;" width="8" height="71.998"/>
</g>
<g style="opacity:0.3;">
	<rect x="76.002" y="211.992" style="fill:#FFFFFF;" width="8" height="79.998"/>
</g>
<g style="opacity:0.3;">
	<rect x="107.992" y="227.992" style="fill:#FFFFFF;" width="8" height="63.998"/>
</g>
<g style="opacity:0.3;">
	<rect x="139.992" y="211.992" style="fill:#FFFFFF;" width="8" height="79.998"/>
</g>
<g style="opacity:0.2;">
	<rect x="163.992" y="211.992" width="8" height="79.998"/>
</g>
<g style="opacity:0.2;">
	<rect x="155.992" y="123.992" width="8" height="71.998"/>
</g>
<g style="opacity:0.2;">
	<rect x="115.992" y="20.002" width="7.999" height="79.998"/>
</g>
<g style="opacity:0.2;">
	<rect x="107.992" y="131.992" width="8" height="63.998"/>
</g>
<g style="opacity:0.2;">
	<rect x="52.002" y="227.992" width="7.999" height="63.998"/>
</g>
<g style="opacity:0.3;">
	<rect x="28.002" y="131.992" style="fill:#FFFFFF;" width="8" height="63.998"/>
</g>
<g style="opacity:0.3;">
	<rect x="28.002" y="227.992" style="fill:#FFFFFF;" width="8" height="63.998"/>
</g>
<g style="opacity:0.3;">
	<rect x="20.002" y="307.992" style="fill:#FFFFFF;" width="7.999" height="79.998"/>
</g>
<g style="opacity:0.3;">
	<rect x="107.992" y="323.992" style="fill:#FFFFFF;" width="8" height="63.998"/>
</g>
<g style="opacity:0.3;">
	<rect x="155.992" y="315.992" style="fill:#FFFFFF;" width="8" height="71.998"/>
</g>
<g style="opacity:0.2;">
	<rect x="131.992" y="323.992" width="8" height="63.998"/>
</g>
<g style="opacity:0.3;">
	<rect x="20.002" y="419.992" style="fill:#FFFFFF;" width="7.999" height="63.998"/>
</g>
<g style="opacity:0.3;">
	<rect x="68.002" y="403.992" style="fill:#FFFFFF;" width="8" height="79.997"/>
</g>
<g style="opacity:0.3;">
	<rect x="99.992" y="411.992" style="fill:#FFFFFF;" width="8" height="71.998"/>
</g>
<g style="opacity:0.3;">
	<rect x="131.992" y="411.992" style="fill:#FFFFFF;" width="8" height="71.998"/>
</g>
<g style="opacity:0.3;">
	<rect x="163.992" y="411.992" style="fill:#FFFFFF;" width="8" height="71.998"/>
</g>
<g style="opacity:0.3;">
	<rect x="227.992" y="419.992" style="fill:#FFFFFF;" width="8" height="63.998"/>
</g>
<g style="opacity:0.2;">
	<rect x="315.992" y="419.992" width="8" height="63.998"/>
</g>
<g style="opacity:0.2;">
	<rect x="203.992" y="411.992" width="8" height="71.998"/>
</g>
<g style="opacity:0.2;">
	<rect x="44.002" y="419.992" width="8" height="63.998"/>
</g>
<g style="opacity:0.2;">
	<rect x="179.992" y="315.992" width="7.999" height="71.998"/>
</g>
<g style="opacity:0.2;">
	<rect x="84.002" y="307.992" width="7.999" height="79.998"/>
</g>
<g style="opacity:0.2;">
	<rect x="4.002" y="4.002" width="8" height="479.99"/>
</g>
<g style="opacity:0.2;">
	<rect x="331.992" y="4.002" width="8" height="479.99"/>
</g>
<g style="opacity:0.2;">
	<rect x="20.002" y="483.982" width="15.999" height="7.999"/>
</g>
<path style="fill:#656D78;" d="M307.991,483.985v15.999c0,4.422,3.578,8,7.999,8c4.422,0,8-3.578,8-8v-15.999H307.991z"/>
<g style="opacity:0.2;">
	<rect x="307.992" y="483.982" width="15.999" height="7.999"/>
</g>
<g>
	<path style="fill:#656D78;" d="M387.988,499.984c0,4.422-3.578,8-8,8c-4.421,0-7.999-3.578-7.999-8s3.578-8,7.999-8
		C384.41,491.984,387.988,495.562,387.988,499.984z"/>
	<path style="fill:#656D78;" d="M507.984,499.984c0,4.422-3.577,8-7.999,8s-8-3.578-8-8s3.578-8,8-8
		S507.984,495.562,507.984,499.984z"/>
</g>
<polygon style="fill:#AAB2BD;" points="387.988,475.985 371.989,483.985 371.989,491.984 387.988,491.984 395.988,491.984 
	395.988,475.985 "/>
<g style="opacity:0.2;">
	<rect x="371.992" y="491.982" width="15.999" height="8"/>
</g>
<polygon style="fill:#AAB2BD;" points="491.985,475.985 507.984,483.985 507.984,491.984 491.985,491.984 483.986,491.984 
	483.986,475.985 "/>
<g style="opacity:0.2;">
	<rect x="491.982" y="491.982" width="15.999" height="8"/>
</g>
<g>
	<path style="fill:#3A3847;" d="M483.986,511.984c-2.211,0-4-1.789-4-4V4c0-2.211,1.789-4,4-4c2.21,0,3.999,1.789,3.999,4v503.984
		C487.985,510.195,486.196,511.984,483.986,511.984z"/>
	<path style="fill:#3A3847;" d="M395.988,511.984c-2.211,0-4-1.789-4-4V4c0-2.211,1.789-4,4-4s4,1.789,4,4v503.984
		C399.988,510.195,398.199,511.984,395.988,511.984z"/>
	<path style="fill:#3A3847;" d="M339.99,487.985H4c-2.211,0-4-1.789-4-4V4c0-2.211,1.789-4,4-4h335.99c2.211,0,4,1.789,4,4v479.985
		C343.99,486.196,342.201,487.985,339.99,487.985z M8,479.985h327.99V8H8V479.985z"/>
	<path style="fill:#3A3847;" d="M379.988,511.984c-6.616,0-11.999-5.383-11.999-12c0-2.211,1.789-4,4-4s4,1.789,4,4
		c0,2.203,1.797,4,3.999,4c2.203,0,4-1.797,4-4c0-2.211,1.789-4,4-4s4,1.789,4,4C391.988,506.601,386.605,511.984,379.988,511.984z"
		/>
	<path style="fill:#3A3847;" d="M387.988,495.984h-15.999c-2.211,0-4-1.789-4-4c0-2.21,1.789-3.999,4-3.999h15.999
		c2.211,0,4,1.789,4,3.999C391.988,494.195,390.199,495.984,387.988,495.984z"/>
	<path style="fill:#3A3847;" d="M371.989,495.984c-2.211,0-4-1.789-4-4v-7.999c0-2.211,1.789-4,4-4s4,1.789,4,4v7.999
		C375.989,494.195,374.2,495.984,371.989,495.984z"/>
	<path style="fill:#3A3847;" d="M371.989,487.985c-1.461,0-2.875-0.812-3.578-2.211c-0.984-1.977-0.188-4.383,1.789-5.367l15.999-8
		c1.984-0.984,4.375-0.188,5.367,1.789c0.984,1.977,0.188,4.383-1.789,5.367l-15.999,8
		C373.2,487.845,372.591,487.985,371.989,487.985z"/>
	<path style="fill:#3A3847;" d="M499.985,511.984c-6.617,0-12-5.383-12-12c0-2.211,1.789-4,4-4s4,1.789,4,4c0,2.203,1.797,4,4,4
		s4-1.797,4-4c0-2.211,1.789-4,3.999-4c2.211,0,4,1.789,4,4C511.984,506.601,506.602,511.984,499.985,511.984z"/>
	<path style="fill:#3A3847;" d="M507.984,495.984h-15.999c-2.211,0-4-1.789-4-4c0-2.21,1.789-3.999,4-3.999h15.999
		c2.211,0,4,1.789,4,3.999C511.984,494.195,510.195,495.984,507.984,495.984z"/>
	<path style="fill:#3A3847;" d="M507.984,495.984c-2.21,0-3.999-1.789-3.999-4v-7.999c0-2.211,1.789-4,3.999-4c2.211,0,4,1.789,4,4
		v7.999C511.984,494.195,510.195,495.984,507.984,495.984z"/>
	<path style="fill:#3A3847;" d="M507.984,487.985c-0.601,0-1.21-0.141-1.788-0.422l-16-8c-1.977-0.984-2.773-3.391-1.789-5.367
		c0.992-1.977,3.391-2.766,5.367-1.789l15.999,8c1.977,0.984,2.773,3.391,1.789,5.367
		C510.859,487.173,509.445,487.985,507.984,487.985z"/>
	<path style="fill:#3A3847;" d="M475.986,423.987h-71.998c-2.211,0-4-1.789-4-4s1.789-4,4-4h71.998c2.211,0,4,1.789,4,4
		S478.197,423.987,475.986,423.987z"/>
	<path style="fill:#3A3847;" d="M475.986,343.989h-71.998c-2.211,0-4-1.789-4-3.999c0-2.211,1.789-4,4-4h71.998c2.211,0,4,1.789,4,4
		C479.986,342.2,478.197,343.989,475.986,343.989z"/>
	<path style="fill:#3A3847;" d="M475.986,263.992h-71.998c-2.211,0-4-1.789-4-4s1.789-4,4-4h71.998c2.211,0,4,1.789,4,4
		S478.197,263.992,475.986,263.992z"/>
	<path style="fill:#3A3847;" d="M475.986,183.994h-71.998c-2.211,0-4-1.789-4-4s1.789-4,4-4h71.998c2.211,0,4,1.789,4,4
		C479.986,182.205,478.197,183.994,475.986,183.994z"/>
	<path style="fill:#3A3847;" d="M475.986,103.997h-71.998c-2.211,0-4-1.789-4-4s1.789-4,4-4h71.998c2.211,0,4,1.789,4,4
		S478.197,103.997,475.986,103.997z"/>
	<path style="fill:#3A3847;" d="M331.99,103.997H12c-2.211,0-4-1.789-4-4s1.789-4,4-4h319.99c2.211,0,4,1.789,4,4
		S334.201,103.997,331.99,103.997z"/>
	<path style="fill:#3A3847;" d="M331.99,199.994H12c-2.211,0-4-1.789-4-4s1.789-4,4-4h319.99c2.211,0,4,1.789,4,4
		S334.201,199.994,331.99,199.994z"/>
	<path style="fill:#3A3847;" d="M331.99,295.991H12c-2.211,0-4-1.789-4-4s1.789-4,4-4h319.99c2.211,0,4,1.789,4,4
		S334.201,295.991,331.99,295.991z"/>
	<path style="fill:#3A3847;" d="M331.99,391.988H12c-2.211,0-4-1.789-4-4s1.789-4,4-4h319.99c2.211,0,4,1.789,4,4
		S334.201,391.988,331.99,391.988z"/>
	<path style="fill:#3A3847;" d="M27.999,511.984c-6.616,0-11.999-5.383-11.999-12c0-2.211,1.789-4,4-4s4,1.789,4,4
		c0,2.203,1.797,4,3.999,4c2.203,0,4-1.797,4-4c0-2.211,1.789-4,4-4s4,1.789,4,4C39.999,506.601,34.616,511.984,27.999,511.984z"/>
	<path style="fill:#3A3847;" d="M20,503.984c-2.211,0-4-1.789-4-4v-8c0-2.21,1.789-3.999,4-3.999s4,1.789,4,3.999v8
		C24,502.195,22.211,503.984,20,503.984z"/>
	<path style="fill:#3A3847;" d="M35.999,503.984c-2.211,0-4-1.789-4-4v-8c0-2.21,1.789-3.999,4-3.999s4,1.789,4,3.999v8
		C39.999,502.195,38.21,503.984,35.999,503.984z"/>
	<path style="fill:#3A3847;" d="M315.99,511.984c-6.616,0-11.999-5.383-11.999-12c0-2.211,1.789-4,4-4s4,1.789,4,4
		c0,2.203,1.797,4,3.999,4c2.203,0,4-1.797,4-4c0-2.211,1.789-4,4-4s4,1.789,4,4C327.99,506.601,322.607,511.984,315.99,511.984z"/>
	<path style="fill:#3A3847;" d="M307.991,503.984c-2.211,0-4-1.789-4-4v-8c0-2.21,1.789-3.999,4-3.999s4,1.789,4,3.999v8
		C311.991,502.195,310.202,503.984,307.991,503.984z"/>
	<path style="fill:#3A3847;" d="M323.99,503.984c-2.211,0-4-1.789-4-4v-8c0-2.21,1.789-3.999,4-3.999s4,1.789,4,3.999v8
		C327.99,502.195,326.201,503.984,323.99,503.984z"/>
	<path style="fill:#3A3847;" d="M43.999,95.997c-2.211,0-4-1.789-4-4V31.999h-8v59.998c0,2.211-1.789,4-4,4
		c-2.21,0-3.999-1.789-3.999-4V27.999c0-2.211,1.789-4,3.999-4h16c2.211,0,4,1.789,4,4v63.998
		C47.999,94.208,46.21,95.997,43.999,95.997z"/>
	<path style="fill:#3A3847;" d="M75.998,95.997c-2.211,0-4-1.789-4-4V23.999h-8v67.998c0,2.211-1.789,4-4,4
		c-2.21,0-3.999-1.789-3.999-4V19.999c0-2.211,1.789-4,3.999-4h16c2.211,0,4,1.789,4,4v71.998
		C79.998,94.208,78.209,95.997,75.998,95.997z"/>
	<path style="fill:#3A3847;" d="M275.992,95.997c-2.211,0-4-1.789-4-4V71.998h-79.998v19.999c0,2.211-1.789,4-4,4
		c-2.21,0-3.999-1.789-3.999-4V67.998c0-2.211,1.789-4,3.999-4h87.998c2.211,0,4,1.789,4,4v23.999
		C279.992,94.208,278.203,95.997,275.992,95.997z"/>
	<path style="fill:#3A3847;" d="M275.992,63.998c-2.211,0-4-1.789-4-4V39.999h-79.998v19.999c0,2.211-1.789,4-4,4
		c-2.21,0-3.999-1.789-3.999-4V35.999c0-2.211,1.789-4,3.999-4h87.998c2.211,0,4,1.789,4,4v23.999
		C279.992,62.209,278.203,63.998,275.992,63.998z"/>
	<path style="fill:#3A3847;" d="M123.996,95.997c-2.21,0-3.999-1.789-3.999-4V23.999h-24v67.998c0,2.211-1.789,4-4,4
		c-2.21,0-3.999-1.789-3.999-4V19.999c0-2.211,1.789-4,3.999-4h31.999c2.211,0,4,1.789,4,4v71.998
		C127.996,94.208,126.207,95.997,123.996,95.997z"/>
	<path style="fill:#3A3847;" d="M107.997,87.997c-2.211,0-4-1.789-4-4V35.999c0-2.211,1.789-4,4-4s4,1.789,4,4v47.999
		C111.997,86.208,110.208,87.997,107.997,87.997z"/>
	<path style="fill:#3A3847;" d="M171.995,95.997c-2.211,0-4-1.789-4-4V39.999h-23.999v51.998c0,2.211-1.789,4-4,4s-4-1.789-4-4
		V35.999c0-2.211,1.789-4,4-4h31.999c2.211,0,4,1.789,4,4v55.998C175.995,94.208,174.206,95.997,171.995,95.997z"/>
	<path style="fill:#3A3847;" d="M155.995,87.997c-2.21,0-3.999-1.789-3.999-4V51.998c0-2.211,1.789-4,3.999-4c2.211,0,4,1.789,4,4
		v31.999C159.995,86.208,158.206,87.997,155.995,87.997z"/>
	<path style="fill:#3A3847;" d="M163.995,191.994c-2.211,0-4-1.789-4-4v-59.998h-23.999v59.998c0,2.211-1.789,4-4,4s-4-1.789-4-4
		v-63.998c0-2.211,1.789-4,4-4h31.999c2.211,0,4,1.789,4,4v63.998C167.995,190.205,166.206,191.994,163.995,191.994z"/>
	<path style="fill:#3A3847;" d="M147.996,183.994c-2.211,0-4-1.789-4-4v-39.999c0-2.21,1.789-4,4-4s4,1.789,4,4v39.999
		C151.996,182.205,150.207,183.994,147.996,183.994z"/>
	<path style="fill:#3A3847;" d="M59.998,287.991c-2.21,0-3.999-1.789-3.999-4v-51.998h-24v51.998c0,2.211-1.789,4-4,4
		c-2.21,0-3.999-1.789-3.999-4v-55.998c0-2.211,1.789-4,3.999-4h31.999c2.211,0,4,1.789,4,4v55.998
		C63.998,286.202,62.209,287.991,59.998,287.991z"/>
	<path style="fill:#3A3847;" d="M43.999,279.991c-2.211,0-4-1.789-4-3.999v-32c0-2.211,1.789-4,4-4s4,1.789,4,4v32
		C47.999,278.202,46.21,279.991,43.999,279.991z"/>
	<path style="fill:#3A3847;" d="M139.996,383.988c-2.211,0-4-1.789-4-4V327.99h-23.999v51.998c0,2.211-1.789,4-4,4s-4-1.789-4-4
		V323.99c0-2.211,1.789-4,4-4h31.999c2.211,0,4,1.789,4,4v55.998C143.996,382.199,142.207,383.988,139.996,383.988z"/>
	<path style="fill:#3A3847;" d="M123.996,375.988c-2.21,0-3.999-1.789-3.999-4V339.99c0-2.211,1.789-4,3.999-4c2.211,0,4,1.789,4,4
		v31.998C127.996,374.199,126.207,375.988,123.996,375.988z"/>
	<path style="fill:#3A3847;" d="M187.994,383.988c-2.21,0-3.999-1.789-3.999-4V319.99h-24v59.998c0,2.211-1.789,4-4,4
		c-2.21,0-3.999-1.789-3.999-4V315.99c0-2.211,1.789-4,3.999-4h31.999c2.211,0,4,1.789,4,4v63.998
		C191.994,382.199,190.205,383.988,187.994,383.988z"/>
	<path style="fill:#3A3847;" d="M171.995,375.988c-2.211,0-4-1.789-4-4V331.99c0-2.211,1.789-4,4-4s4,1.789,4,4v39.998
		C175.995,374.199,174.206,375.988,171.995,375.988z"/>
	<path style="fill:#3A3847;" d="M211.994,479.985c-2.211,0-4-1.789-4-4v-59.998h-39.999v59.998c0,2.211-1.789,4-4,4s-4-1.789-4-4
		v-63.998c0-2.211,1.789-4,4-4h47.999c2.211,0,4,1.789,4,4v63.998C215.994,478.196,214.205,479.985,211.994,479.985z"/>
	<path style="fill:#3A3847;" d="M187.994,471.985c-2.21,0-3.999-1.789-3.999-3.999v-40c0-2.21,1.789-3.999,3.999-3.999
		c2.211,0,4,1.789,4,3.999v40C191.994,470.196,190.205,471.985,187.994,471.985z"/>
	<path style="fill:#3A3847;" d="M91.997,287.991c-2.21,0-3.999-1.789-3.999-4v-67.998h-8v67.998c0,2.211-1.789,4-4,4s-4-1.789-4-4
		v-71.998c0-2.211,1.789-4,4-4h15.999c2.211,0,4,1.789,4,4v71.998C95.997,286.202,94.208,287.991,91.997,287.991z"/>
	<path style="fill:#3A3847;" d="M123.996,287.991c-2.21,0-3.999-1.789-3.999-4v-51.998h-8v51.998c0,2.211-1.789,4-4,4s-4-1.789-4-4
		v-55.998c0-2.211,1.789-4,4-4h15.999c2.211,0,4,1.789,4,4v55.998C127.996,286.202,126.207,287.991,123.996,287.991z"/>
	<path style="fill:#3A3847;" d="M219.993,383.988c-2.21,0-3.999-1.789-3.999-4v-35.999h-8v35.999c0,2.211-1.789,4-4,4s-4-1.789-4-4
		V339.99c0-2.211,1.789-4,4-4h15.999c2.211,0,4,1.789,4,4v39.998C223.993,382.199,222.204,383.988,219.993,383.988z"/>
	<path style="fill:#3A3847;" d="M171.995,287.991c-2.211,0-4-1.789-4-4v-67.998h-23.999v67.998c0,2.211-1.789,4-4,4s-4-1.789-4-4
		v-71.998c0-2.211,1.789-4,4-4h31.999c2.211,0,4,1.789,4,4v71.998C175.995,286.202,174.206,287.991,171.995,287.991z"/>
	<path style="fill:#3A3847;" d="M155.995,279.991c-2.21,0-3.999-1.789-3.999-3.999v-47.999c0-2.211,1.789-4,3.999-4
		c2.211,0,4,1.789,4,4v47.999C159.995,278.202,158.206,279.991,155.995,279.991z"/>
	<path style="fill:#3A3847;" d="M219.993,287.991c-2.21,0-3.999-1.789-3.999-4v-51.998h-24v51.998c0,2.211-1.789,4-4,4
		c-2.21,0-3.999-1.789-3.999-4v-55.998c0-2.211,1.789-4,3.999-4h31.999c2.211,0,4,1.789,4,4v55.998
		C223.993,286.202,222.204,287.991,219.993,287.991z"/>
	<path style="fill:#3A3847;" d="M203.994,279.991c-2.211,0-4-1.789-4-3.999v-32c0-2.211,1.789-4,4-4s4,1.789,4,4v32
		C207.994,278.202,206.205,279.991,203.994,279.991z"/>
	<path style="fill:#3A3847;" d="M291.992,191.994c-2.211,0-4-1.789-4-4v-67.998h-8v67.998c0,2.211-1.789,4-4,4s-4-1.789-4-4v-71.998
		c0-2.211,1.789-4,4-4h16c2.21,0,3.999,1.789,3.999,4v71.998C295.991,190.205,294.202,191.994,291.992,191.994z"/>
	<path style="fill:#3A3847;" d="M323.99,191.994c-2.211,0-4-1.789-4-4v-67.998h-7.999v67.998c0,2.211-1.789,4-4,4s-4-1.789-4-4
		v-71.998c0-2.211,1.789-4,4-4h15.999c2.211,0,4,1.789,4,4v71.998C327.99,190.205,326.201,191.994,323.99,191.994z"/>
	<path style="fill:#3A3847;" d="M51.999,479.985c-2.211,0-4-1.789-4-4v-51.998H24v51.998c0,2.211-1.789,4-4,4s-4-1.789-4-4v-55.998
		c0-2.211,1.789-4,4-4h31.999c2.211,0,4,1.789,4,4v55.998C55.999,478.196,54.21,479.985,51.999,479.985z"/>
	<path style="fill:#3A3847;" d="M83.998,479.985c-2.211,0-4-1.789-4-4v-67.998h-8v67.998c0,2.211-1.789,4-4,4s-4-1.789-4-4v-71.997
		c0-2.211,1.789-4,4-4h16c2.211,0,4,1.789,4,4v71.997C87.998,478.196,86.209,479.985,83.998,479.985z"/>
	<path style="fill:#3A3847;" d="M115.997,479.985c-2.211,0-4-1.789-4-4v-59.998h-8v59.998c0,2.211-1.789,4-4,4s-4-1.789-4-4v-63.998
		c0-2.211,1.789-4,4-4h16c2.211,0,4,1.789,4,4v63.998C119.997,478.196,118.208,479.985,115.997,479.985z"/>
	<path style="fill:#3A3847;" d="M147.996,479.985c-2.211,0-4-1.789-4-4v-59.998h-8v59.998c0,2.211-1.789,4-4,4s-4-1.789-4-4v-63.998
		c0-2.211,1.789-4,4-4h16c2.211,0,4,1.789,4,4v63.998C151.996,478.196,150.207,479.985,147.996,479.985z"/>
	<path style="fill:#3A3847;" d="M323.99,95.997c-2.211,0-4-1.789-4-4V23.999h-23.999v67.998c0,2.211-1.789,4-3.999,4
		c-2.211,0-4-1.789-4-4V19.999c0-2.211,1.789-4,4-4h31.998c2.211,0,4,1.789,4,4v71.998C327.99,94.208,326.201,95.997,323.99,95.997z
		"/>
	<path style="fill:#3A3847;" d="M307.991,87.997c-2.211,0-4-1.789-4-4V35.999c0-2.211,1.789-4,4-4s4,1.789,4,4v47.999
		C311.991,86.208,310.202,87.997,307.991,87.997z"/>
	<path style="fill:#3A3847;" d="M259.992,55.998h-55.998c-2.211,0-4-1.789-4-4s1.789-4,4-4h55.998c2.211,0,4,1.789,4,4
		S262.203,55.998,259.992,55.998z"/>
	<path style="fill:#3A3847;" d="M259.992,87.997h-55.998c-2.211,0-4-1.789-4-4s1.789-4,4-4h55.998c2.211,0,4,1.789,4,4
		C263.992,86.208,262.203,87.997,259.992,87.997z"/>
	<path style="fill:#3A3847;" d="M323.99,383.988c-2.211,0-4-1.789-4-4v-19.999h-79.997v19.999c0,2.211-1.789,4-4,4s-4-1.789-4-4
		v-23.999c0-2.211,1.789-4,4-4h87.997c2.211,0,4,1.789,4,4v23.999C327.99,382.199,326.201,383.988,323.99,383.988z"/>
	<path style="fill:#3A3847;" d="M323.99,351.989c-2.211,0-4-1.789-4-4V327.99h-79.997v19.999c0,2.211-1.789,4-4,4s-4-1.789-4-4
		V323.99c0-2.211,1.789-4,4-4h87.997c2.211,0,4,1.789,4,4v23.999C327.99,350.2,326.201,351.989,323.99,351.989z"/>
	<path style="fill:#3A3847;" d="M307.991,343.989h-55.999c-2.21,0-3.999-1.789-3.999-3.999c0-2.211,1.789-4,3.999-4h55.999
		c2.211,0,4,1.789,4,4C311.991,342.2,310.202,343.989,307.991,343.989z"/>
	<path style="fill:#3A3847;" d="M307.991,375.988h-55.999c-2.21,0-3.999-1.789-3.999-4s1.789-4,3.999-4h55.999c2.211,0,4,1.789,4,4
		S310.202,375.988,307.991,375.988z"/>
	<path style="fill:#3A3847;" d="M115.997,191.994c-2.211,0-4-1.789-4-4v-4H31.999v4c0,2.211-1.789,4-4,4
		c-2.21,0-3.999-1.789-3.999-4v-8c0-2.211,1.789-4,3.999-4h87.998c2.211,0,4,1.789,4,4v8
		C119.997,190.205,118.208,191.994,115.997,191.994z"/>
	<path style="fill:#3A3847;" d="M115.997,175.994c-2.211,0-4-1.789-4-4v-4H31.999v4c0,2.211-1.789,4-4,4
		c-2.21,0-3.999-1.789-3.999-4v-8c0-2.211,1.789-4,3.999-4h87.998c2.211,0,4,1.789,4,4v8
		C119.997,174.205,118.208,175.994,115.997,175.994z"/>
	<path style="fill:#3A3847;" d="M115.997,159.995c-2.211,0-4-1.789-4-4v-4H31.999v4c0,2.211-1.789,4-4,4
		c-2.21,0-3.999-1.789-3.999-4v-8c0-2.211,1.789-4,3.999-4h87.998c2.211,0,4,1.789,4,4v8
		C119.997,158.206,118.208,159.995,115.997,159.995z"/>
	<path style="fill:#3A3847;" d="M115.997,143.995c-2.211,0-4-1.789-4-4v-4H31.999v4c0,2.211-1.789,4-4,4
		c-2.21,0-3.999-1.789-3.999-4v-8c0-2.211,1.789-4,3.999-4h87.998c2.211,0,4,1.789,4,4v8
		C119.997,142.206,118.208,143.995,115.997,143.995z"/>
	<path style="fill:#3A3847;" d="M259.992,191.994c-2.211,0-4-1.789-4-4v-35.999h-71.997v35.999c0,2.211-1.789,4-4,4s-4-1.789-4-4
		v-39.999c0-2.211,1.789-4,4-4h79.997c2.211,0,4,1.789,4,4v39.999C263.992,190.205,262.203,191.994,259.992,191.994z"/>
	<path style="fill:#3A3847;" d="M243.993,175.994h-47.999c-2.211,0-4-1.789-4-4c0-2.21,1.789-4,4-4h47.999c2.211,0,4,1.789,4,4
		S246.204,175.994,243.993,175.994z"/>
	<path style="fill:#3A3847;" d="M323.99,279.991h-87.997c-2.211,0-4-1.789-4-3.999c0-2.211,1.789-4,4-4h87.997c2.211,0,4,1.789,4,4
		C327.99,278.202,326.201,279.991,323.99,279.991z"/>
	<path style="fill:#3A3847;" d="M323.99,287.991c-2.211,0-4-1.789-4-4v-7.999c0-2.211,1.789-4,4-4s4,1.789,4,4v7.999
		C327.99,286.202,326.201,287.991,323.99,287.991z"/>
	<path style="fill:#3A3847;" d="M235.993,287.991c-2.211,0-4-1.789-4-4v-7.999c0-2.211,1.789-4,4-4s4,1.789,4,4v7.999
		C239.993,286.202,238.204,287.991,235.993,287.991z"/>
	<path style="fill:#3A3847;" d="M323.99,263.992h-87.997c-2.211,0-4-1.789-4-4s1.789-4,4-4h87.997c2.211,0,4,1.789,4,4
		S326.201,263.992,323.99,263.992z"/>
	<path style="fill:#3A3847;" d="M323.99,271.992c-2.211,0-4-1.789-4-4v-8c0-2.211,1.789-4,4-4s4,1.789,4,4v8
		C327.99,270.203,326.201,271.992,323.99,271.992z"/>
	<path style="fill:#3A3847;" d="M235.993,271.992c-2.211,0-4-1.789-4-4v-8c0-2.211,1.789-4,4-4s4,1.789,4,4v8
		C239.993,270.203,238.204,271.992,235.993,271.992z"/>
	<path style="fill:#3A3847;" d="M323.99,247.992h-87.997c-2.211,0-4-1.789-4-4s1.789-4,4-4h87.997c2.211,0,4,1.789,4,4
		S326.201,247.992,323.99,247.992z"/>
	<path style="fill:#3A3847;" d="M323.99,255.992c-2.211,0-4-1.789-4-4v-8c0-2.211,1.789-4,4-4s4,1.789,4,4v8
		C327.99,254.203,326.201,255.992,323.99,255.992z"/>
	<path style="fill:#3A3847;" d="M235.993,255.992c-2.211,0-4-1.789-4-4v-8c0-2.211,1.789-4,4-4s4,1.789,4,4v8
		C239.993,254.203,238.204,255.992,235.993,255.992z"/>
	<path style="fill:#3A3847;" d="M323.99,471.985h-95.997c-2.211,0-4-1.789-4-3.999c0-2.211,1.789-4,4-4h95.997c2.211,0,4,1.789,4,4
		C327.99,470.196,326.201,471.985,323.99,471.985z"/>
	<path style="fill:#3A3847;" d="M323.99,479.985c-2.211,0-4-1.789-4-4v-7.999c0-2.211,1.789-4,4-4s4,1.789,4,4v7.999
		C327.99,478.196,326.201,479.985,323.99,479.985z"/>
	<path style="fill:#3A3847;" d="M227.993,479.985c-2.211,0-4-1.789-4-4v-7.999c0-2.211,1.789-4,4-4s4,1.789,4,4v7.999
		C231.993,478.196,230.204,479.985,227.993,479.985z"/>
	<path style="fill:#3A3847;" d="M323.99,455.986h-95.997c-2.211,0-4-1.789-4-4s1.789-4,4-4h95.997c2.211,0,4,1.789,4,4
		S326.201,455.986,323.99,455.986z"/>
	<path style="fill:#3A3847;" d="M323.99,463.986c-2.211,0-4-1.789-4-4v-8c0-2.211,1.789-4,4-4s4,1.789,4,4v8
		C327.99,462.197,326.201,463.986,323.99,463.986z"/>
	<path style="fill:#3A3847;" d="M227.993,463.986c-2.211,0-4-1.789-4-4v-8c0-2.211,1.789-4,4-4s4,1.789,4,4v8
		C231.993,462.197,230.204,463.986,227.993,463.986z"/>
	<path style="fill:#3A3847;" d="M323.99,439.986h-95.997c-2.211,0-4-1.789-4-4s1.789-4,4-4h95.997c2.211,0,4,1.789,4,4
		S326.201,439.986,323.99,439.986z"/>
	<path style="fill:#3A3847;" d="M323.99,447.986c-2.211,0-4-1.789-4-4v-8c0-2.211,1.789-4,4-4s4,1.789,4,4v8
		C327.99,446.197,326.201,447.986,323.99,447.986z"/>
	<path style="fill:#3A3847;" d="M227.993,447.986c-2.211,0-4-1.789-4-4v-8c0-2.211,1.789-4,4-4s4,1.789,4,4v8
		C231.993,446.197,230.204,447.986,227.993,447.986z"/>
	<path style="fill:#3A3847;" d="M323.99,423.987h-95.997c-2.211,0-4-1.789-4-4s1.789-4,4-4h95.997c2.211,0,4,1.789,4,4
		S326.201,423.987,323.99,423.987z"/>
	<path style="fill:#3A3847;" d="M323.99,431.986c-2.211,0-4-1.789-4-4v-7.999c0-2.211,1.789-4,4-4s4,1.789,4,4v7.999
		C327.99,430.197,326.201,431.986,323.99,431.986z"/>
	<path style="fill:#3A3847;" d="M227.993,431.986c-2.211,0-4-1.789-4-4v-7.999c0-2.211,1.789-4,4-4s4,1.789,4,4v7.999
		C231.993,430.197,230.204,431.986,227.993,431.986z"/>
	<path style="fill:#3A3847;" d="M91.997,375.988H20c-2.211,0-4-1.789-4-4s1.789-4,4-4h71.997c2.211,0,4,1.789,4,4
		S94.208,375.988,91.997,375.988z"/>
	<path style="fill:#3A3847;" d="M91.997,383.988c-2.21,0-3.999-1.789-3.999-4v-8c0-2.211,1.789-4,3.999-4c2.211,0,4,1.789,4,4v8
		C95.997,382.199,94.208,383.988,91.997,383.988z"/>
	<path style="fill:#3A3847;" d="M20,383.988c-2.211,0-4-1.789-4-4v-8c0-2.211,1.789-4,4-4s4,1.789,4,4v8
		C24,382.199,22.211,383.988,20,383.988z"/>
	<path style="fill:#3A3847;" d="M91.997,359.989H20c-2.211,0-4-1.789-4-4s1.789-4,4-4h71.997c2.211,0,4,1.789,4,4
		S94.208,359.989,91.997,359.989z"/>
	<path style="fill:#3A3847;" d="M91.997,367.988c-2.21,0-3.999-1.789-3.999-4v-7.999c0-2.211,1.789-4,3.999-4c2.211,0,4,1.789,4,4
		v7.999C95.997,366.199,94.208,367.988,91.997,367.988z"/>
	<path style="fill:#3A3847;" d="M20,367.988c-2.211,0-4-1.789-4-4v-7.999c0-2.211,1.789-4,4-4s4,1.789,4,4v7.999
		C24,366.199,22.211,367.988,20,367.988z"/>
	<path style="fill:#3A3847;" d="M91.997,343.989H20c-2.211,0-4-1.789-4-3.999c0-2.211,1.789-4,4-4h71.997c2.211,0,4,1.789,4,4
		C95.997,342.2,94.208,343.989,91.997,343.989z"/>
	<path style="fill:#3A3847;" d="M91.997,351.989c-2.21,0-3.999-1.789-3.999-4v-7.999c0-2.211,1.789-4,3.999-4c2.211,0,4,1.789,4,4
		v7.999C95.997,350.2,94.208,351.989,91.997,351.989z"/>
	<path style="fill:#3A3847;" d="M20,351.989c-2.211,0-4-1.789-4-4v-7.999c0-2.211,1.789-4,4-4s4,1.789,4,4v7.999
		C24,350.2,22.211,351.989,20,351.989z"/>
	<path style="fill:#3A3847;" d="M91.997,327.99H20c-2.211,0-4-1.789-4-4s1.789-4,4-4h71.997c2.211,0,4,1.789,4,4
		S94.208,327.99,91.997,327.99z"/>
	<path style="fill:#3A3847;" d="M91.997,335.99c-2.21,0-3.999-1.789-3.999-4v-8c0-2.211,1.789-4,3.999-4c2.211,0,4,1.789,4,4v8
		C95.997,334.201,94.208,335.99,91.997,335.99z"/>
	<path style="fill:#3A3847;" d="M20,335.99c-2.211,0-4-1.789-4-4v-8c0-2.211,1.789-4,4-4s4,1.789,4,4v8
		C24,334.201,22.211,335.99,20,335.99z"/>
	<path style="fill:#3A3847;" d="M91.997,311.99H20c-2.211,0-4-1.789-4-4s1.789-4,4-4h71.997c2.211,0,4,1.789,4,4
		S94.208,311.99,91.997,311.99z"/>
	<path style="fill:#3A3847;" d="M91.997,319.99c-2.21,0-3.999-1.789-3.999-4v-8c0-2.211,1.789-4,3.999-4c2.211,0,4,1.789,4,4v8
		C95.997,318.201,94.208,319.99,91.997,319.99z"/>
	<path style="fill:#3A3847;" d="M20,319.99c-2.211,0-4-1.789-4-4v-8c0-2.211,1.789-4,4-4s4,1.789,4,4v8
		C24,318.201,22.211,319.99,20,319.99z"/>
	<path style="fill:#3A3847;" d="M35.999,471.985c-2.211,0-4-1.789-4-3.999v-32c0-2.211,1.789-4,4-4s4,1.789,4,4v32
		C39.999,470.196,38.21,471.985,35.999,471.985z"/>
</g>
<g>
</g>
<g>
</g>
<g>
</g>
<g>
</g>
<g>
</g>
<g>
</g>
<g>
</g>
<g>
</g>
<g>
</g>
<g>
</g>
<g>
</g>
<g>
</g>
<g>
</g>
<g>
</g>
<g>
</g>
</svg>
