<?xml version="1.0" encoding="iso-8859-1"?>
<!-- Generator: Adobe Illustrator 19.0.0, SVG Export Plug-In . SVG Version: 6.00 Build 0)  -->
<svg version="1.1" id="Capa_1" xmlns="http://www.w3.org/2000/svg" xmlns:xlink="http://www.w3.org/1999/xlink" x="0px" y="0px"
	 viewBox="0 0 511.985 511.985" style="enable-background:new 0 0 511.985 511.985;" xml:space="preserve">
<path id="SVGCleanerId_0" style="fill:#CCD1D9;" d="M12.001,95.998c-4.418,0-8,3.578-8,8s3.582,8,8,8h61.748v-16H12.001z"/>
<g style="opacity:0.5;">
	<path style="fill:#FFFFFF;" d="M73.749,95.998H12.001c-4.418,0-8,3.578-8,8h69.748C73.749,103.998,73.749,95.998,73.749,95.998z"/>
</g>
<polygon style="fill:#CCD1D9;" points="475.987,119.997 121.998,119.997 121.998,87.998 475.987,87.998 507.985,103.998 "/>
<g style="opacity:0.5;">
	<polygon style="fill:#FFFFFF;" points="121.998,87.998 121.998,103.998 507.985,103.998 475.987,87.998 	"/>
</g>
<g>
	<path id="SVGCleanerId_0_1_" style="fill:#CCD1D9;" d="M12.001,95.998c-4.418,0-8,3.578-8,8s3.582,8,8,8h61.748v-16H12.001z"/>
</g>
<path style="fill:#AAB2BD;" d="M99.999,95.998c4.398,0,8,3.602,8,8s-3.602,8-8,8s-8-3.602-8-8S95.6,95.998,99.999,95.998z"/>
<path style="fill:#656D78;" d="M107.998,103.998c0-4.398-3.602-8-8-8s-8,3.602-8,8s3.602,8,8,8
	C104.397,111.998,107.998,108.396,107.998,103.998z M99.999,71.999c17.679,0,31.999,14.319,31.999,31.999
	c0,17.679-14.32,31.999-31.999,31.999S68,121.677,68,103.998C68,86.318,82.32,71.999,99.999,71.999z"/>
<g style="opacity:0.3;">
	<path style="fill:#FFFFFF;" d="M99.999,79.999c16.308,0,29.608,12.233,31.597,27.999c0.168-1.328,0.402-2.633,0.402-4
		c0-17.68-14.32-31.999-31.999-31.999S68,86.318,68,103.998c0,1.367,0.234,2.672,0.402,4C70.39,92.232,83.691,79.999,99.999,79.999z
		"/>
</g>
<g style="opacity:0.2;">
	<path d="M99.999,127.997c-16.308,0-29.609-12.233-31.597-27.999c-0.168,1.328-0.402,2.633-0.402,4
		c0,17.679,14.32,31.999,31.999,31.999s31.999-14.32,31.999-31.999c0-1.367-0.234-2.672-0.402-4
		C129.607,115.764,116.307,127.997,99.999,127.997z"/>
</g>
<path style="fill:#FFCE54;" d="M500.065,48H44L4.001,32L44,16.001h399.987h16h40.078c4.32,0,7.92,3.523,7.92,7.921V40
	c0,4.398-3.6,7.922-7.92,7.922V48z"/>
<path style="fill:#FFD2A6;" d="M291.993,495.985h-24h-23.999h-24h-23.999h-24h-23.999h-24H99.997h-24H52H28H4.002V151.996
	l503.983,343.989h-47.998h-23.998h-24h-24h-23.998h-24h-24H291.993z M68,431.987l231.993-0.476L68,273.196V431.987z"/>
<g style="opacity:0.2;">
	<polygon points="4.002,151.996 4.002,162.918 491.987,495.985 507.985,495.985 	"/>
</g>
<g style="opacity:0.5;">
	<polygon style="fill:#FFFFFF;" points="4.002,151.996 4.002,495.985 12.001,495.985 12.001,157.457 	"/>
</g>
<polygon style="fill:#AC92EC;" points="295.595,309.35 275.751,295.836 255.916,282.234 236.073,268.712 193.117,239.431 
	215.675,206.393 235.514,219.916 268.555,242.471 446.948,364.231 479.987,386.786 499.831,400.309 477.268,433.347 
	454.143,417.512 434.309,403.989 414.466,390.466 394.708,376.95 374.874,363.428 355.03,349.912 335.194,336.389 315.431,322.874 
	"/>
<g style="opacity:0.3;">
	<polygon style="fill:#FFFFFF;" points="462.143,409.512 442.309,395.989 422.466,382.466 402.708,368.95 382.872,355.428 
		363.03,341.912 343.194,328.389 323.429,314.874 303.595,301.35 283.751,287.836 263.915,274.235 244.073,260.712 201.117,231.431 
		217.406,207.573 215.675,206.393 193.117,239.431 236.073,268.712 255.916,282.234 275.751,295.836 295.595,309.35 
		315.431,322.874 335.194,336.389 355.03,349.912 374.874,363.428 394.708,376.95 414.466,390.466 434.309,403.989 454.143,417.512 
		477.268,433.347 483.542,424.16 	"/>
</g>
<path style="fill:#967ADC;" d="M339.991,193.917c-13.758,2.555-27.115,7.922-39.037,15.758
	c-11.602,7.522-21.922,17.437-30.164,29.522l-2.234,3.273l-33.042-22.555l2.242-3.281c46.081-67.521,138.157-84.958,205.67-38.881
	c67.52,46.162,84.879,138.159,38.881,205.673l-2.32,3.359l-33.039-22.555l2.242-3.28c8.234-12.078,13.758-25.28,16.555-38.804
	c5.844-27.999,0.32-57.357-15.359-81.271c-7.6-11.523-17.436-21.844-29.514-30.085c-12.086-8.234-25.203-13.68-38.727-16.477
	C368.233,191.354,353.835,191.276,339.991,193.917z"/>
<g style="opacity:0.2;">
	<path d="M443.427,177.754c-61.164-41.741-142.355-31.21-191.378,21.304c49.522-45.491,125.45-52.842,183.378-13.305
		c65.561,44.819,83.645,132.785,42.545,199.658l2.016,1.375l2.32-3.359C528.305,315.913,510.946,223.916,443.427,177.754z"/>
</g>
<polygon style="fill:#FFD2A6;" points="38.246,18.305 52,32 38.332,45.734 4.002,32 "/>
<rect x="427.993" y="16.003" style="fill:#CCD1D9;" width="47.998" height="31.999"/>
<path style="fill:#EC87C0;" d="M500.065,16.001h-24.078V48h24.078v-0.078c4.32,0,7.92-3.523,7.92-7.922V23.922
	C507.985,19.524,504.386,16.001,500.065,16.001z"/>
<g style="opacity:0.5;">
	<path style="fill:#FFFFFF;" d="M507.985,31.961v-8.039c0-4.397-3.6-7.921-7.92-7.921h-40.078h-16H44L4.099,31.961H507.985z"/>
</g>
<g>
	<path style="fill:#3A3847;" d="M4.002,499.985c-2.211,0-4-1.789-4-4V151.996c0-2.211,1.789-3.999,4-3.999c2.21,0,4,1.788,4,3.999
		v343.989C8.001,498.196,6.212,499.985,4.002,499.985z"/>
	<path style="fill:#3A3847;" d="M507.985,499.985H4.002c-2.211,0-4-1.789-4-4s1.789-4,4-4h503.983c2.211,0,4,1.789,4,4
		S510.196,499.985,507.985,499.985z"/>
	<path style="fill:#3A3847;" d="M507.985,499.985c-0.779,0-1.561-0.227-2.256-0.695L1.748,155.301
		c-1.824-1.25-2.297-3.734-1.051-5.562c1.246-1.819,3.742-2.28,5.558-1.047l503.988,343.989c1.82,1.25,2.289,3.734,1.047,5.562
		C510.516,499.376,509.259,499.985,507.985,499.985z"/>
	<path style="fill:#3A3847;" d="M68,435.987c-2.211,0-4-1.789-4-4V273.196c0-2.211,1.789-4,4-4c2.21,0,4,1.789,4,4v158.791
		C71.999,434.198,70.21,435.987,68,435.987z"/>
	<path style="fill:#3A3847;" d="M68,435.987c-2.207,0-3.996-1.789-4-3.992c-0.004-2.211,1.781-4,3.992-4.008l231.993-0.476h0.008
		c2.203,0,3.992,1.788,4,3.991c0.008,2.211-1.781,4-3.992,4.008l-231.994,0.477C68.003,435.987,68.003,435.987,68,435.987z"/>
	<path style="fill:#3A3847;" d="M299.993,435.511c-0.781,0-1.562-0.227-2.258-0.695L65.746,276.5
		c-1.824-1.241-2.297-3.733-1.051-5.562c1.242-1.82,3.738-2.281,5.558-1.047l231.998,158.314c1.82,1.242,2.289,3.734,1.047,5.562
		C302.524,434.901,301.266,435.511,299.993,435.511z"/>
	<path style="fill:#3A3847;" d="M28.001,499.985c-2.21,0-4-1.789-4-4v-7.28c0-2.211,1.789-4,4-4s4,1.789,4,4v7.28
		C32.001,498.196,30.212,499.985,28.001,499.985z"/>
	<path style="fill:#3A3847;" d="M52,499.985c-2.211,0-4-1.789-4-4v-7.28c0-2.211,1.789-4,4-4s4,1.789,4,4v7.28
		C56,498.196,54.211,499.985,52,499.985z"/>
	<path style="fill:#3A3847;" d="M75.999,499.985c-2.211,0-4-1.789-4-4v-7.28c0-2.211,1.789-4,4-4s4,1.789,4,4v7.28
		C79.999,498.196,78.21,499.985,75.999,499.985z"/>
	<path style="fill:#3A3847;" d="M99.999,499.985c-2.211,0-4-1.789-4-4v-7.28c0-2.211,1.789-4,4-4c2.21,0,4,1.789,4,4v7.28
		C103.998,498.196,102.209,499.985,99.999,499.985z"/>
	<path style="fill:#3A3847;" d="M123.998,499.985c-2.21,0-4-1.789-4-4v-7.28c0-2.211,1.789-4,4-4s4,1.789,4,4v7.28
		C127.998,498.196,126.209,499.985,123.998,499.985z"/>
	<path style="fill:#3A3847;" d="M147.997,499.985c-2.211,0-4-1.789-4-4v-7.28c0-2.211,1.789-4,4-4s4,1.789,4,4v7.28
		C151.997,498.196,150.208,499.985,147.997,499.985z"/>
	<path style="fill:#3A3847;" d="M171.996,499.985c-2.211,0-4-1.789-4-4v-7.28c0-2.211,1.789-4,4-4s4,1.789,4,4v7.28
		C175.996,498.196,174.207,499.985,171.996,499.985z"/>
	<path style="fill:#3A3847;" d="M195.996,499.985c-2.211,0-4-1.789-4-4v-7.28c0-2.211,1.789-4,4-4c2.21,0,4,1.789,4,4v7.28
		C199.995,498.196,198.206,499.985,195.996,499.985z"/>
	<path style="fill:#3A3847;" d="M219.995,499.985c-2.21,0-4-1.789-4-4v-7.28c0-2.211,1.789-4,4-4s4,1.789,4,4v7.28
		C223.995,498.196,222.206,499.985,219.995,499.985z"/>
	<path style="fill:#3A3847;" d="M243.994,499.985c-2.211,0-4-1.789-4-4v-7.28c0-2.211,1.789-4,4-4s4,1.789,4,4v7.28
		C247.994,498.196,246.205,499.985,243.994,499.985z"/>
	<path style="fill:#3A3847;" d="M267.993,499.985c-2.211,0-4-1.789-4-4v-7.28c0-2.211,1.789-4,4-4s4,1.789,4,4v7.28
		C271.993,498.196,270.204,499.985,267.993,499.985z"/>
	<path style="fill:#3A3847;" d="M291.993,499.985c-2.211,0-4-1.789-4-4v-7.28c0-2.211,1.789-4,4-4s4,1.789,4,4v7.28
		C295.993,498.196,294.204,499.985,291.993,499.985z"/>
	<path style="fill:#3A3847;" d="M315.991,499.985c-2.209,0-3.998-1.789-3.998-4v-7.28c0-2.211,1.789-4,3.998-4c2.211,0,4,1.789,4,4
		v7.28C319.991,498.196,318.202,499.985,315.991,499.985z"/>
	<path style="fill:#3A3847;" d="M339.991,499.985c-2.211,0-4-1.789-4-4v-7.28c0-2.211,1.789-4,4-4s4,1.789,4,4v7.28
		C343.991,498.196,342.202,499.985,339.991,499.985z"/>
	<path style="fill:#3A3847;" d="M363.991,499.985c-2.211,0-4-1.789-4-4v-7.28c0-2.211,1.789-4,4-4s4,1.789,4,4v7.28
		C367.991,498.196,366.202,499.985,363.991,499.985z"/>
	<path style="fill:#3A3847;" d="M387.989,499.985c-2.211,0-4-1.789-4-4v-7.28c0-2.211,1.789-4,4-4s4,1.789,4,4v7.28
		C391.989,498.196,390.2,499.985,387.989,499.985z"/>
	<path style="fill:#3A3847;" d="M411.989,499.985c-2.211,0-4-1.789-4-4v-7.28c0-2.211,1.789-4,4-4s4,1.789,4,4v7.28
		C415.989,498.196,414.2,499.985,411.989,499.985z"/>
	<path style="fill:#3A3847;" d="M435.989,499.985c-2.211,0-4-1.789-4-4v-7.28c0-2.211,1.789-4,4-4s4,1.789,4,4v7.28
		C439.989,498.196,438.2,499.985,435.989,499.985z"/>
	<path style="fill:#3A3847;" d="M459.987,499.985c-2.211,0-4-1.789-4-4v-7.28c0-2.211,1.789-4,4-4s4,1.789,4,4v7.28
		C463.987,498.196,462.198,499.985,459.987,499.985z"/>
	<path style="fill:#3A3847;" d="M477.268,437.347c-0.805,0-1.586-0.242-2.258-0.703L190.863,242.736
		c-0.875-0.594-1.48-1.516-1.676-2.562c-0.199-1.039,0.027-2.125,0.625-3l22.558-33.038c1.25-1.82,3.727-2.281,5.559-1.047
		l284.152,193.916c0.883,0.594,1.484,1.516,1.68,2.562c0.195,1.039-0.031,2.125-0.625,3l-22.562,33.037
		c-0.602,0.875-1.523,1.477-2.57,1.672C477.761,437.323,477.511,437.347,477.268,437.347z M198.679,238.385l277.542,189.4
		l18.047-26.429L216.726,211.948L198.679,238.385z"/>
	<path style="fill:#3A3847;" d="M449.19,364.95c-0.781,0-1.562-0.227-2.25-0.695c-1.828-1.241-2.297-3.733-1.055-5.554
		c7.828-11.484,13.188-24.054,15.945-37.366c5.602-26.858,0.211-55.381-14.789-78.263c-7.623-11.555-17.186-21.312-28.428-28.977
		c-11.398-7.765-23.945-13.108-37.281-15.866c-13.186-2.805-27.209-2.93-40.592-0.383c-13.234,2.461-26.225,7.703-37.592,15.171
		c-11.5,7.461-21.273,17.023-29.055,28.43c-1.25,1.844-3.734,2.297-5.555,1.055c-1.828-1.242-2.297-3.734-1.055-5.555
		c8.383-12.297,18.914-22.602,31.289-30.632c12.227-8.031,26.232-13.688,40.49-16.328c14.398-2.766,29.523-2.609,43.717,0.414
		c14.352,2.969,27.867,8.719,40.141,17.086c12.102,8.257,22.396,18.749,30.6,31.187c16.172,24.655,21.977,55.373,15.938,84.294
		c-2.969,14.344-8.742,27.882-17.164,40.233C451.722,364.341,450.464,364.95,449.19,364.95z"/>
	<path style="fill:#3A3847;" d="M482.307,387.427c-0.781,0-1.562-0.227-2.25-0.695c-1.828-1.242-2.297-3.734-1.055-5.555
		c44.662-65.553,27.688-155.323-37.834-200.119c-31.766-21.687-70.084-29.687-107.873-22.53
		c-37.795,7.148-70.549,28.585-92.235,60.365c-1.246,1.82-3.746,2.289-5.559,1.047c-1.824-1.242-2.297-3.734-1.051-5.562
		c22.893-33.538,57.471-56.17,97.36-63.709c39.883-7.562,80.334,0.898,113.871,23.781c69.154,47.287,87.068,142.042,39.93,211.228
		C484.839,386.817,483.581,387.427,482.307,387.427z"/>
	<path style="fill:#3A3847;" d="M420.872,214.791c-0.781,0-1.57-0.227-2.258-0.703c-1.828-1.242-2.289-3.733-1.039-5.554
		l9.039-13.195c1.25-1.82,3.75-2.281,5.555-1.039c1.828,1.242,2.289,3.734,1.039,5.555l-9.039,13.194
		C423.395,214.181,422.145,214.791,420.872,214.791z"/>
	<path style="fill:#3A3847;" d="M382.153,198.315c-0.273,0-0.547-0.023-0.828-0.086c-2.162-0.453-3.545-2.57-3.092-4.734
		l3.279-15.679c0.453-2.156,2.539-3.586,4.734-3.094c2.164,0.453,3.547,2.57,3.094,4.734l-3.281,15.679
		C385.669,197.018,384.005,198.315,382.153,198.315z"/>
	<path style="fill:#3A3847;" d="M339.983,197.917c-1.883,0-3.562-1.344-3.922-3.258l-2.961-15.765
		c-0.406-2.172,1.023-4.266,3.188-4.672c2.117-0.398,4.266,1.016,4.672,3.188l2.961,15.765c0.406,2.172-1.023,4.266-3.188,4.672
		C340.483,197.893,340.233,197.917,339.983,197.917z"/>
	<path style="fill:#3A3847;" d="M300.954,213.674c-1.297,0-2.578-0.633-3.344-1.804l-8.805-13.438
		c-1.211-1.852-0.695-4.328,1.148-5.539c1.836-1.211,4.328-0.711,5.539,1.148l8.805,13.438c1.211,1.852,0.695,4.328-1.148,5.538
		C302.47,213.463,301.712,213.674,300.954,213.674z"/>
	<path style="fill:#3A3847;" d="M481.432,329.429c-0.273,0-0.555-0.023-0.828-0.086l-15.68-3.281
		c-2.164-0.453-3.547-2.57-3.094-4.734s2.547-3.578,4.734-3.094l15.68,3.281c2.164,0.453,3.547,2.57,3.094,4.734
		C484.948,328.132,483.284,329.429,481.432,329.429z"/>
	<path style="fill:#3A3847;" d="M466.136,283.992c-1.883,0-3.562-1.344-3.922-3.258c-0.406-2.172,1.023-4.266,3.188-4.672
		l15.766-2.96c2.133-0.398,4.266,1.016,4.672,3.187c0.406,2.172-1.023,4.266-3.188,4.672l-15.766,2.961
		C466.636,283.969,466.386,283.992,466.136,283.992z"/>
	<path style="fill:#3A3847;" d="M450.386,244.876c-1.305,0-2.586-0.641-3.352-1.819c-1.203-1.852-0.68-4.336,1.172-5.531
		l13.445-8.727c1.844-1.203,4.328-0.68,5.531,1.172s0.68,4.336-1.172,5.531l-13.445,8.726
		C451.893,244.665,451.136,244.876,450.386,244.876z"/>
	<path style="fill:#3A3847;" d="M216.312,259.196c-0.777,0-1.562-0.227-2.25-0.695c-1.824-1.25-2.297-3.734-1.051-5.562l4.48-6.562
		c1.25-1.82,3.738-2.281,5.558-1.047c1.824,1.25,2.297,3.734,1.051,5.562l-4.48,6.562
		C218.843,258.587,217.589,259.196,216.312,259.196z"/>
	<path style="fill:#3A3847;" d="M236.069,272.712c-0.789,0-1.582-0.234-2.281-0.719c-1.812-1.258-2.262-3.75-1-5.562l4.562-6.562
		c1.258-1.82,3.742-2.266,5.57-1c1.812,1.258,2.262,3.75,1,5.562l-4.562,6.562C238.58,272.11,237.334,272.712,236.069,272.712z"/>
	<path style="fill:#3A3847;" d="M255.912,286.234c-0.777,0-1.559-0.227-2.25-0.695c-1.824-1.242-2.296-3.734-1.051-5.562
		l4.476-6.562c1.246-1.82,3.727-2.281,5.559-1.047c1.824,1.242,2.293,3.733,1.051,5.562l-4.477,6.562
		C258.446,285.625,257.188,286.234,255.912,286.234z"/>
	<path style="fill:#3A3847;" d="M275.751,299.836c-0.773,0-1.555-0.219-2.242-0.688c-1.828-1.234-2.312-3.719-1.07-5.555
		l4.484-6.641c1.242-1.82,3.734-2.305,5.555-1.07c1.828,1.234,2.312,3.719,1.07,5.555l-4.484,6.641
		C278.29,299.219,277.032,299.836,275.751,299.836z"/>
	<path style="fill:#3A3847;" d="M295.595,313.35c-0.773,0-1.547-0.219-2.234-0.68c-1.836-1.242-2.32-3.727-1.086-5.555l4.477-6.641
		c1.242-1.843,3.734-2.312,5.555-1.085c1.836,1.241,2.32,3.726,1.086,5.554l-4.477,6.641
		C298.141,312.733,296.876,313.35,295.595,313.35z"/>
	<path style="fill:#3A3847;" d="M315.431,326.874c-0.773,0-1.555-0.219-2.242-0.688c-1.828-1.234-2.312-3.719-1.07-5.555
		l4.482-6.641c1.242-1.828,3.734-2.312,5.555-1.07c1.828,1.234,2.312,3.719,1.07,5.555l-4.484,6.641
		C317.968,326.257,316.71,326.874,315.431,326.874z"/>
	<path style="fill:#3A3847;" d="M335.194,340.389c-0.781,0-1.57-0.227-2.266-0.702c-1.82-1.25-2.281-3.734-1.031-5.562l4.555-6.641
		c1.258-1.812,3.742-2.281,5.562-1.031s2.281,3.734,1.031,5.562l-4.555,6.641C337.718,339.78,336.468,340.389,335.194,340.389z"/>
	<path style="fill:#3A3847;" d="M355.03,353.912c-0.781,0-1.57-0.227-2.266-0.703c-1.82-1.25-2.281-3.742-1.031-5.562l4.562-6.641
		c1.25-1.804,3.734-2.272,5.562-1.03c1.82,1.249,2.281,3.741,1.031,5.562l-4.562,6.641
		C357.554,353.303,356.304,353.912,355.03,353.912z"/>
	<path style="fill:#3A3847;" d="M374.874,367.427c-0.773,0-1.547-0.219-2.234-0.68c-1.836-1.242-2.32-3.726-1.086-5.554l4.477-6.641
		c1.242-1.836,3.734-2.297,5.553-1.086c1.836,1.242,2.32,3.727,1.086,5.555l-4.475,6.64
		C377.421,366.809,376.155,367.427,374.874,367.427z"/>
	<path style="fill:#3A3847;" d="M394.708,380.95c-0.773,0-1.555-0.219-2.242-0.688c-1.828-1.234-2.312-3.719-1.07-5.555l4.484-6.641
		c1.242-1.828,3.734-2.305,5.555-1.07c1.828,1.234,2.312,3.719,1.07,5.555l-4.484,6.641
		C397.247,380.333,395.989,380.95,394.708,380.95z"/>
	<path style="fill:#3A3847;" d="M414.466,394.466c-0.789,0-1.586-0.234-2.281-0.719c-1.82-1.258-2.266-3.75-1-5.57l4.562-6.547
		c1.266-1.812,3.758-2.25,5.562-1c1.82,1.258,2.266,3.75,1,5.57l-4.562,6.555C416.973,393.864,415.723,394.466,414.466,394.466z"/>
	<path style="fill:#3A3847;" d="M434.309,407.988c-0.789,0-1.586-0.234-2.281-0.719c-1.812-1.258-2.266-3.749-1-5.562l4.562-6.562
		c1.25-1.812,3.742-2.266,5.562-1c1.812,1.258,2.266,3.75,1,5.562l-4.562,6.562C436.817,407.387,435.575,407.988,434.309,407.988z"
		/>
	<path style="fill:#3A3847;" d="M454.143,421.512c-0.789,0-1.586-0.234-2.281-0.719c-1.812-1.258-2.266-3.75-1-5.562l4.562-6.562
		c1.25-1.812,3.742-2.273,5.562-1c1.812,1.258,2.266,3.75,1,5.562l-4.562,6.562C456.651,420.91,455.409,421.512,454.143,421.512z"/>
	<path style="fill:#3A3847;" d="M500.065,20.001H44c-2.211,0-4-1.789-4-4s1.789-4,4-4h456.065c2.211,0,4,1.789,4,4
		S502.276,20.001,500.065,20.001z"/>
	<path style="fill:#3A3847;" d="M500.065,52H44c-2.211,0-4-1.789-4-4s1.789-4,4-4h456.065c2.211,0,4,1.789,4,4
		S502.276,52,500.065,52z"/>
	<path style="fill:#3A3847;" d="M507.985,27.922c-2.209,0-3.998-1.789-3.998-4c0-2.164-1.758-3.921-3.922-3.921
		c-2.211,0-4-1.789-4-4s1.789-4,4-4c6.57,0,11.92,5.352,11.92,11.921C511.985,26.133,510.196,27.922,507.985,27.922z"/>
	<path style="fill:#3A3847;" d="M500.065,51.922c-2.211,0-4-1.789-4-4s1.789-4,4-4c2.164,0,3.922-1.758,3.922-3.922
		c0-2.211,1.789-4,3.998-4c2.211,0,4,1.789,4,4C511.985,46.57,506.636,51.922,500.065,51.922z"/>
	<path style="fill:#3A3847;" d="M507.985,44c-2.209,0-3.998-1.789-3.998-4V23.922c0-2.211,1.789-3.999,3.998-3.999
		c2.211,0,4,1.788,4,3.999V40C511.985,42.211,510.196,44,507.985,44z"/>
	<path style="fill:#3A3847;" d="M475.987,44c-2.211,0-4-1.789-4-4V23.922c0-2.211,1.789-3.999,4-3.999s4,1.788,4,3.999V40
		C479.987,42.211,478.198,44,475.987,44z"/>
	<path style="fill:#3A3847;" d="M427.989,44c-2.211,0-4-1.789-4-4V23.922c0-2.211,1.789-3.999,4-3.999s4,1.788,4,3.999V40
		C431.989,42.211,430.2,44,427.989,44z"/>
	<path style="fill:#3A3847;" d="M443.987,24c-2.209,0-3.998-1.789-3.998-3.999v-4c0-2.211,1.789-4,3.998-4c2.211,0,4,1.789,4,4v4
		C447.987,22.211,446.198,24,443.987,24z"/>
	<path style="fill:#3A3847;" d="M459.987,24c-2.211,0-4-1.789-4-3.999v-4c0-2.211,1.789-4,4-4s4,1.789,4,4v4
		C463.987,22.211,462.198,24,459.987,24z"/>
	<path style="fill:#3A3847;" d="M459.987,51.922c-2.211,0-4-1.789-4-4V44c0-2.211,1.789-4,4-4s4,1.789,4,4v3.922
		C463.987,50.133,462.198,51.922,459.987,51.922z"/>
	<path style="fill:#3A3847;" d="M443.987,51.922c-2.209,0-3.998-1.789-3.998-4V44c0-2.211,1.789-4,3.998-4c2.211,0,4,1.789,4,4
		v3.922C447.987,50.133,446.198,51.922,443.987,51.922z"/>
	<path style="fill:#3A3847;" d="M44,52c-0.496,0-1-0.094-1.484-0.289l-39.999-16c-2.051-0.82-3.051-3.148-2.23-5.195
		c0.82-2.055,3.16-3.055,5.199-2.227l39.999,16c2.051,0.82,3.051,3.148,2.23,5.195C47.09,51.047,45.586,52,44,52z"/>
	<path style="fill:#3A3847;" d="M4.002,36c-1.586,0-3.09-0.953-3.715-2.516c-0.82-2.047,0.18-4.375,2.23-5.195L42.516,12.29
		c2.035-0.82,4.379,0.172,5.199,2.227c0.82,2.047-0.18,4.375-2.23,5.195L5.486,35.711C5.001,35.906,4.497,36,4.002,36z"/>
	<path style="fill:#3A3847;" d="M52,36c-1.023,0-2.047-0.391-2.828-1.172l-8-8c-1.562-1.562-1.562-4.094,0-5.656
		s4.094-1.562,5.656,0l8,8c1.562,1.562,1.562,4.094,0,5.656C54.047,35.609,53.024,36,52,36z"/>
	<path style="fill:#3A3847;" d="M44,44c-1.023,0-2.047-0.391-2.828-1.172c-1.562-1.562-1.562-4.094,0-5.656l8-8
		c1.562-1.562,4.094-1.562,5.656,0s1.562,4.094,0,5.656l-8,8C46.047,43.609,45.024,44,44,44z"/>
	<path style="fill:#3A3847;" d="M411.989,36H68c-2.211,0-4-1.789-4-4s1.789-4,4-4h343.989c2.211,0,4,1.789,4,4S414.2,36,411.989,36z
		"/>
	<path style="fill:#3A3847;" d="M60,115.998H12.001c-2.211,0-4-1.789-4-4s1.789-4,4-4H60c2.211,0,4,1.789,4,4
		S62.211,115.998,60,115.998z"/>
	<path style="fill:#3A3847;" d="M60,99.998H12.001c-2.211,0-4-1.789-4-4s1.789-4,4-4H60c2.211,0,4,1.789,4,4
		S62.211,99.998,60,99.998z"/>
	<path style="fill:#3A3847;" d="M12.001,115.998c-6.617,0-12-5.383-12-12s5.382-12,12-12c2.211,0,4,1.789,4,4s-1.789,4-4,4
		c-2.207,0-4,1.797-4,4s1.793,4,4,4c2.211,0,4,1.789,4,4S14.212,115.998,12.001,115.998z"/>
	<path style="fill:#3A3847;" d="M99.999,139.997C80.148,139.997,64,123.849,64,103.998c0-19.852,16.148-35.999,35.999-35.999
		s35.999,16.147,35.999,35.999C135.997,123.848,119.85,139.997,99.999,139.997z M99.999,75.999c-15.437,0-28,12.562-28,27.999
		s12.562,27.999,28,27.999s27.999-12.562,27.999-27.999C127.998,88.56,115.436,75.999,99.999,75.999z"/>
	<path style="fill:#3A3847;" d="M99.999,115.998c-6.617,0-12-5.383-12-12s5.382-12,12-12c6.617,0,12,5.383,12,12
		S106.616,115.998,99.999,115.998z M99.999,99.998c-2.207,0-4,1.797-4,4s1.793,4,4,4s4-1.797,4-4S102.205,99.998,99.999,99.998z"/>
	<path style="fill:#3A3847;" d="M475.987,123.997h-335.99c-2.211,0-4-1.789-4-4s1.789-3.999,4-3.999h335.99c2.211,0,4,1.788,4,3.999
		S478.198,123.997,475.987,123.997z"/>
	<path style="fill:#3A3847;" d="M475.987,91.998h-335.99c-2.211,0-4-1.789-4-4s1.789-3.999,4-3.999h335.99c2.211,0,4,1.788,4,3.999
		S478.198,91.998,475.987,91.998z"/>
	<path style="fill:#3A3847;" d="M483.987,107.998h-335.99c-2.211,0-4-1.789-4-4s1.789-4,4-4h335.99c2.211,0,4,1.789,4,4
		S486.198,107.998,483.987,107.998z"/>
	<path style="fill:#3A3847;" d="M507.985,107.998c-0.6,0-1.209-0.133-1.787-0.422l-32-16c-1.977-0.992-2.773-3.391-1.789-5.367
		c1-1.969,3.391-2.772,5.367-1.789l31.998,16c1.977,0.992,2.773,3.391,1.789,5.367C510.86,107.185,509.446,107.998,507.985,107.998z
		"/>
	<path style="fill:#3A3847;" d="M475.987,123.997c-1.461,0-2.875-0.812-3.578-2.211c-0.984-1.977-0.188-4.375,1.789-5.367l32-15.999
		c1.982-0.992,4.373-0.188,5.365,1.789c0.984,1.977,0.188,4.375-1.789,5.367l-31.998,15.999
		C477.198,123.864,476.589,123.997,475.987,123.997z"/>
</g>
<g>
</g>
<g>
</g>
<g>
</g>
<g>
</g>
<g>
</g>
<g>
</g>
<g>
</g>
<g>
</g>
<g>
</g>
<g>
</g>
<g>
</g>
<g>
</g>
<g>
</g>
<g>
</g>
<g>
</g>
</svg>
